<svg xmlns="http://www.w3.org/2000/svg" xmlns:xlink="http://www.w3.org/1999/xlink" width="1366" zoomAndPan="magnify" viewBox="0 0 1024.5 1024.500009" height="1366" preserveAspectRatio="xMidYMid meet" version="1.0"><defs><g/><clipPath id="73fb2e86f5"><path d="M 776 155 L 1024 155 L 1024 864 L 776 864 Z M 776 155 " clip-rule="nonzero"/></clipPath></defs><path fill="#ffffff" d="M 0 0 L 1024 0 L 1024 1024 L 0 1024 Z M 0 0 " fill-opacity="1" fill-rule="nonzero"/><path fill="#ffffff" d="M 0 0 L 1024 0 L 1024 1024 L 0 1024 Z M 0 0 " fill-opacity="1" fill-rule="nonzero"/><g fill="#000000" fill-opacity="1"><g transform="translate(248.717839, 464.830706)"><g><path d="M 67.078125 0 L 0 -156 L 44.609375 -156 L 87.4375 -52.109375 L 129.953125 -156 L 173.671875 -156 L 106.59375 0 Z M 67.078125 0 "/></g></g></g><g fill="#000000" fill-opacity="1"><g transform="translate(422.38756, 464.830706)"><g><path d="M 57.1875 -218.59375 L 57.1875 0 L 16.171875 0 L 16.171875 -209.609375 Z M 57.1875 -218.59375 "/></g></g></g><g fill="#000000" fill-opacity="1"><g transform="translate(495.448582, 464.830706)"><g><path d="M 16.171875 0 L 16.171875 -156 L 57.1875 -156 L 57.1875 -144.328125 C 62.78125 -149.117188 68.96875 -152.757812 75.75 -155.25 C 82.539062 -157.75 89.929688 -159 97.921875 -159 C 107.898438 -159 116.929688 -156.953125 125.015625 -152.859375 C 133.097656 -148.765625 139.734375 -143.023438 144.921875 -135.640625 C 151.109375 -143.234375 158.59375 -149.023438 167.375 -153.015625 C 176.164062 -157.003906 185.851562 -159 196.4375 -159 C 213.800781 -159 228.070312 -153.207031 239.25 -141.625 C 250.425781 -130.050781 256.015625 -115.179688 256.015625 -97.015625 L 256.015625 0 L 215 0 L 215 -91.03125 C 215 -100.8125 212.351562 -108.695312 207.0625 -114.6875 C 201.769531 -120.675781 194.632812 -123.671875 185.65625 -123.671875 C 179.46875 -123.671875 173.828125 -122.320312 168.734375 -119.625 C 163.640625 -116.925781 159.296875 -113.082031 155.703125 -108.09375 C 155.898438 -106.300781 156.097656 -104.503906 156.296875 -102.703125 C 156.503906 -100.910156 156.609375 -99.015625 156.609375 -97.015625 L 156.609375 0 L 115.578125 0 L 115.578125 -91.03125 C 115.578125 -100.8125 112.929688 -108.695312 107.640625 -114.6875 C 102.359375 -120.675781 95.222656 -123.671875 86.234375 -123.671875 C 80.046875 -123.671875 74.554688 -122.472656 69.765625 -120.078125 C 64.972656 -117.679688 60.78125 -114.1875 57.1875 -109.59375 L 57.1875 0 Z M 16.171875 0 "/></g></g></g><g fill="#000000" fill-opacity="1"><g transform="translate(257.682954, 726.547904)"><g><path d="M 16.953125 0 L 16.953125 -163.5625 L 59.96875 -163.5625 L 59.96875 -145.671875 C 65.195312 -152.785156 71.523438 -158.171875 78.953125 -161.828125 C 86.378906 -165.492188 94.59375 -167.328125 103.59375 -167.328125 C 107.78125 -167.117188 111.285156 -166.75 114.109375 -166.21875 C 116.941406 -165.695312 119.40625 -164.8125 121.5 -163.5625 L 121.5 -125.890625 C 118.351562 -127.359375 114.894531 -128.457031 111.125 -129.1875 C 107.363281 -129.914062 103.492188 -130.28125 99.515625 -130.28125 C 91.140625 -130.28125 83.445312 -128.1875 76.4375 -124 C 69.425781 -119.8125 63.9375 -113.742188 59.96875 -105.796875 L 59.96875 0 Z M 16.953125 0 "/></g></g></g><g fill="#000000" fill-opacity="1"><g transform="translate(385.452651, 726.547904)"><g><path d="M 58.703125 -163.5625 L 58.703125 -68.4375 C 58.703125 -57.96875 61.789062 -49.59375 67.96875 -43.3125 C 74.144531 -37.039062 82.359375 -33.90625 92.609375 -33.90625 C 99.929688 -33.90625 106.46875 -35.316406 112.21875 -38.140625 C 117.976562 -40.960938 122.742188 -44.992188 126.515625 -50.234375 L 126.515625 -163.5625 L 169.53125 -163.5625 L 169.53125 0 L 126.515625 0 L 126.515625 -13.1875 C 120.234375 -7.957031 113.222656 -3.925781 105.484375 -1.09375 C 97.742188 1.726562 89.375 3.140625 80.375 3.140625 C 61.53125 3.140625 46.039062 -2.976562 33.90625 -15.21875 C 21.769531 -27.46875 15.703125 -43.113281 15.703125 -62.15625 L 15.703125 -163.5625 Z M 58.703125 -163.5625 "/></g></g></g><g fill="#000000" fill-opacity="1"><g transform="translate(571.613385, 726.547904)"><g><path d="M 16.953125 0 L 16.953125 -163.5625 L 59.96875 -163.5625 L 59.96875 -150.6875 C 66.238281 -155.914062 73.191406 -159.890625 80.828125 -162.609375 C 88.472656 -165.335938 96.796875 -166.703125 105.796875 -166.703125 C 124.628906 -166.703125 140.113281 -160.628906 152.25 -148.484375 C 164.394531 -136.347656 170.46875 -120.757812 170.46875 -101.71875 L 170.46875 0 L 127.453125 0 L 127.453125 -95.4375 C 127.453125 -105.6875 124.363281 -113.953125 118.1875 -120.234375 C 112.019531 -126.515625 103.804688 -129.65625 93.546875 -129.65625 C 86.429688 -129.65625 79.992188 -128.242188 74.234375 -125.421875 C 68.484375 -122.597656 63.726562 -118.566406 59.96875 -113.328125 L 59.96875 0 Z M 16.953125 0 "/></g></g></g><g fill="#a6a6a6" fill-opacity="1"><g transform="translate(-50.741064, 697.801506)"><g><path d="M 220.375 -64.8125 L 192.15625 11.4375 C 184.019531 32.789062 183.890625 50.582031 191.765625 64.8125 C 199.648438 79.050781 213.757812 86.171875 234.09375 86.171875 C 242.226562 86.171875 250.109375 85.535156 257.734375 84.265625 C 265.359375 82.992188 273.238281 80.832031 281.375 77.78125 L 296.625 153.265625 C 283.914062 157.335938 271.332031 160.515625 258.875 162.796875 C 246.425781 165.085938 233.847656 166.234375 221.140625 166.234375 C 195.710938 166.234375 173.59375 162.164062 154.78125 154.03125 C 135.976562 145.894531 121.113281 134.707031 110.1875 120.46875 C 99.257812 106.238281 92.90625 89.460938 91.125 70.140625 C 89.34375 50.828125 92.519531 29.988281 100.65625 7.625 L 126.578125 -61.765625 C 136.234375 -86.671875 136.234375 -107.382812 126.578125 -123.90625 C 116.921875 -140.425781 99.890625 -148.6875 75.484375 -148.6875 L 12.203125 -148.6875 L 12.203125 -226.46875 L 75.484375 -226.46875 C 99.890625 -226.46875 116.921875 -234.726562 126.578125 -251.25 C 136.234375 -267.769531 136.234375 -288.488281 126.578125 -313.40625 L 100.65625 -382.796875 C 92.519531 -405.160156 89.34375 -426.128906 91.125 -445.703125 C 92.90625 -465.273438 99.257812 -482.050781 110.1875 -496.03125 C 121.113281 -510.007812 135.976562 -521.0625 154.78125 -529.1875 C 173.59375 -537.320312 195.710938 -541.390625 221.140625 -541.390625 C 233.847656 -541.390625 246.425781 -540.242188 258.875 -537.953125 C 271.332031 -535.671875 283.914062 -532.5 296.625 -528.4375 L 281.375 -453.703125 C 273.238281 -456.242188 265.359375 -458.273438 257.734375 -459.796875 C 250.109375 -461.328125 242.226562 -462.09375 234.09375 -462.09375 C 213.757812 -461.582031 199.648438 -454.207031 191.765625 -439.96875 C 183.890625 -425.738281 184.019531 -407.953125 192.15625 -386.609375 L 220.375 -310.34375 C 231.050781 -281.375 228.890625 -255.320312 213.890625 -232.1875 C 198.890625 -209.0625 175.378906 -194.191406 143.359375 -187.578125 C 175.378906 -180.972656 198.890625 -166.101562 213.890625 -142.96875 C 228.890625 -119.84375 231.050781 -93.789062 220.375 -64.8125 Z M 220.375 -64.8125 "/></g></g></g><g clip-path="url(#73fb2e86f5)"><g fill="#a6a6a6" fill-opacity="1"><g transform="translate(745.959037, 697.67185)"><g><path d="M 106.765625 -311.140625 L 134.984375 -387.390625 C 143.117188 -408.742188 143.242188 -426.535156 135.359375 -440.765625 C 127.484375 -455.003906 113.375 -462.125 93.03125 -462.125 C 84.894531 -462.125 77.015625 -461.488281 69.390625 -460.21875 C 61.765625 -458.945312 53.882812 -456.789062 45.75 -453.75 L 30.5 -529.234375 C 43.207031 -533.304688 55.789062 -536.484375 68.25 -538.765625 C 80.707031 -541.054688 93.289062 -542.203125 106 -542.203125 C 131.414062 -542.203125 153.53125 -538.132812 172.34375 -530 C 191.15625 -521.863281 206.023438 -510.675781 216.953125 -496.4375 C 227.890625 -482.207031 234.242188 -465.429688 236.015625 -446.109375 C 237.796875 -426.796875 234.617188 -405.953125 226.484375 -383.578125 L 200.5625 -314.1875 C 190.90625 -289.28125 190.90625 -268.5625 200.5625 -252.03125 C 210.21875 -235.507812 227.25 -227.25 251.65625 -227.25 L 314.953125 -227.25 L 314.953125 -149.46875 L 251.65625 -149.46875 C 227.25 -149.46875 210.21875 -141.207031 200.5625 -124.6875 C 190.90625 -108.164062 190.90625 -87.445312 200.5625 -62.53125 L 226.484375 6.859375 C 234.617188 29.234375 237.796875 50.207031 236.015625 69.78125 C 234.242188 89.351562 227.890625 106.128906 216.953125 120.109375 C 206.023438 134.085938 191.15625 145.144531 172.34375 153.28125 C 153.53125 161.414062 131.414062 165.484375 106 165.484375 C 93.289062 165.484375 80.707031 164.335938 68.25 162.046875 C 55.789062 159.765625 43.207031 156.585938 30.5 152.515625 L 45.75 77.78125 C 53.882812 80.320312 61.765625 82.351562 69.390625 83.875 C 77.015625 85.40625 84.894531 86.171875 93.03125 86.171875 C 113.375 85.660156 127.484375 78.285156 135.359375 64.046875 C 143.242188 49.816406 143.117188 32.023438 134.984375 10.671875 L 106.765625 -65.578125 C 96.085938 -94.554688 98.242188 -120.613281 113.234375 -143.75 C 128.234375 -166.882812 151.75 -181.753906 183.78125 -188.359375 C 151.75 -194.972656 128.234375 -209.84375 113.234375 -232.96875 C 98.242188 -256.101562 96.085938 -282.160156 106.765625 -311.140625 Z M 106.765625 -311.140625 "/></g></g></g></g></svg>